<svg width="50" height="50" viewBox="0 0 50 50" fill="none" xmlns="http://www.w3.org/2000/svg">
<circle cx="25" cy="25" r="25" fill="white"/>
<path d="M33.5909 18.25C33.5909 18.25 30.9858 16.2317 27.9091 16L27.6318 16.549C30.4136 17.2229 31.6898 18.1887 33.0227 19.375C30.7244 18.2134 28.4551 17.125 24.5 17.125C20.5449 17.125 18.2756 18.2134 15.9773 19.375C17.3102 18.1887 18.8284 17.1166 21.3682 16.549L21.0909 16C17.8631 16.3021 15.4091 18.25 15.4091 18.25C15.4091 18.25 12.4994 22.4266 12 30.625C14.933 33.9736 19.3864 34 19.3864 34L20.3176 32.7709C18.7369 32.227 16.9517 31.2556 15.4091 29.5C17.2489 30.8781 20.0256 32.3125 24.5 32.3125C28.9744 32.3125 31.7511 30.8781 33.5909 29.5C32.0483 31.2556 30.2631 32.227 28.6824 32.7709L29.6136 34C29.6136 34 34.067 33.9736 37 30.625C36.5006 22.4266 33.5909 18.25 33.5909 18.25ZM20.8068 28.375C19.7085 28.375 18.8182 27.3676 18.8182 26.125C18.8182 24.8824 19.7085 23.875 20.8068 23.875C21.9051 23.875 22.7955 24.8824 22.7955 26.125C22.7955 27.3676 21.9051 28.375 20.8068 28.375ZM28.1932 28.375C27.0949 28.375 26.2045 27.3676 26.2045 26.125C26.2045 24.8824 27.0949 23.875 28.1932 23.875C29.2915 23.875 30.1818 24.8824 30.1818 26.125C30.1818 27.3676 29.2915 28.375 28.1932 28.375Z" fill="#8C9EFF"/>
</svg>
