<svg width="187" height="50" viewBox="0 0 187 50" fill="none" xmlns="http://www.w3.org/2000/svg">
<path d="M81.96 11C82.4133 11 82.64 12.1867 82.64 14.56C82.64 16.9067 82.4133 18.08 81.96 18.08H74.64V22.64H79.52C79.9733 22.64 80.2 23.68 80.2 25.76C80.2 27.8133 79.9867 28.84 79.56 28.84H74.64V38.48C74.64 38.8533 74.1333 39.0933 73.12 39.2C72.1333 39.3333 71.3067 39.4 70.64 39.4L68.76 39.32C67.4533 39.16 66.8 38.8933 66.8 38.52V12.04C66.8 11.6133 66.88 11.3333 67.04 11.2C67.2267 11.0667 67.4933 11 67.84 11H81.96ZM92.9472 38.68C92.9472 38.92 91.5872 39.04 88.8672 39.04C86.7339 39.0133 85.6672 38.9067 85.6672 38.72V11.48C85.6672 11.08 86.9605 10.88 89.5472 10.88C91.8139 10.96 92.9472 11.0933 92.9472 11.28V38.68ZM96.3656 19.24C96.3656 18.9467 97.5123 18.8 99.8056 18.8C102.099 18.8 103.246 18.9467 103.246 19.24V30.92C103.246 32.2533 103.672 32.92 104.526 32.92C105.166 32.92 105.886 32.64 106.686 32.08V19.24C106.686 18.9733 107.819 18.84 110.086 18.84C112.352 18.84 113.486 18.9733 113.486 19.24V32.36H114.526C115.432 32.36 115.886 33.2267 115.886 34.96C115.886 35.84 115.699 36.7333 115.326 37.64C114.792 38.8133 114.072 39.4 113.166 39.4C111.379 39.4 110.059 38.6667 109.206 37.2L109.166 37.24C107.539 38.68 105.792 39.4 103.926 39.4C101.339 39.4 99.4323 38.76 98.2056 37.48C96.979 36.1733 96.3656 34.0267 96.3656 31.04V19.24ZM119.883 24.32H117.923C117.523 24.32 117.323 23.44 117.323 21.68C117.323 19.8933 117.523 19 117.923 19H119.883V18.12C119.883 15.2933 120.47 13.3467 121.643 12.28C122.843 11.1867 124.51 10.64 126.643 10.64C128.777 10.64 130.657 11.0267 132.283 11.8C132.497 11.88 132.603 12.1733 132.603 12.68C132.603 13.16 132.377 13.9467 131.923 15.04C131.47 16.1333 131.083 16.76 130.763 16.92C129.857 16.36 128.923 16.08 127.963 16.08C126.923 16.08 126.403 16.7733 126.403 18.16V19H129.723C130.203 19 130.443 19.8533 130.443 21.56C130.443 23.4267 130.137 24.36 129.523 24.36H126.963V38.52C126.963 38.84 125.777 39 123.403 39C121.057 39 119.883 38.84 119.883 38.52V24.32ZM134.883 24.32H132.923C132.523 24.32 132.323 23.44 132.323 21.68C132.323 19.8933 132.523 19 132.923 19H134.883V18.12C134.883 15.2933 135.47 13.3467 136.643 12.28C137.843 11.1867 139.51 10.64 141.643 10.64C143.777 10.64 145.657 11.0267 147.283 11.8C147.497 11.88 147.603 12.1733 147.603 12.68C147.603 13.16 147.377 13.9467 146.923 15.04C146.47 16.1333 146.083 16.76 145.763 16.92C144.857 16.36 143.923 16.08 142.963 16.08C141.923 16.08 141.403 16.7733 141.403 18.16V19H144.723C145.203 19 145.443 19.8533 145.443 21.56C145.443 23.4267 145.137 24.36 144.523 24.36H141.963V38.52C141.963 38.84 140.777 39 138.403 39C136.057 39 134.883 38.84 134.883 38.52V24.32ZM146.923 19.2C146.923 18.9067 148.137 18.76 150.563 18.76C153.017 18.76 154.283 18.8933 154.363 19.16L157.243 28.6L160.003 19.08C160.11 18.8667 160.937 18.76 162.483 18.76C166.03 18.76 167.723 18.9333 167.563 19.28L158.163 46.04C158.137 46.2 157.403 46.28 155.963 46.28C154.55 46.28 153.23 46.2267 152.003 46.12C150.777 46.04 150.19 45.9333 150.243 45.8L153.723 37.4L146.923 19.2ZM170.648 31.8C172.808 33.1067 174.514 33.76 175.768 33.76C176.568 33.76 176.968 33.48 176.968 32.92C176.968 32.52 176.274 32 174.888 31.36C171.554 30 169.888 27.7733 169.888 24.68C169.888 22.7067 170.608 21.2 172.048 20.16C173.488 19.12 175.208 18.6 177.208 18.6C179.234 18.6 180.941 18.8133 182.328 19.24C183.741 19.6667 184.448 20.2267 184.448 20.92C184.448 21.5067 184.154 22.28 183.568 23.24C183.008 24.2 182.621 24.72 182.408 24.8C181.261 24.16 180.021 23.84 178.688 23.84C177.968 23.84 177.608 24.0933 177.608 24.6C177.608 24.92 177.741 25.2 178.008 25.44C178.301 25.6533 178.821 25.9333 179.568 26.28C180.314 26.6 180.928 26.8933 181.408 27.16C181.914 27.4267 182.474 27.8 183.088 28.28C184.368 29.2933 185.008 30.6133 185.008 32.24C185.008 34.3733 184.301 36.1067 182.888 37.44C181.474 38.7467 179.341 39.4 176.488 39.4C174.594 39.4 172.874 39.08 171.328 38.44C169.781 37.8 169.008 36.92 169.008 35.8C169.008 35.0533 169.181 34.2667 169.528 33.44C169.901 32.6133 170.274 32.0667 170.648 31.8Z" fill="white"/>
<circle cx="25" cy="25" r="24" fill="white" stroke="#A4E869" stroke-width="2"/>
<path d="M26.5105 9.30707C26.5632 9.65284 27.0242 9.72647 27.1809 9.41388C27.9685 7.84009 30.3341 8.61552 30.0543 10.3559C29.9987 10.701 30.4149 10.9147 30.6588 10.6666C31.8895 9.41509 33.9018 10.8905 33.1029 12.4583C32.9444 12.7691 33.2745 13.1022 33.5824 12.9422C35.136 12.136 36.5981 14.1666 35.3579 15.4085C35.1121 15.6547 35.3238 16.0747 35.6659 16.0186C37.3905 15.7362 38.1589 18.1234 36.5993 18.9182C36.2902 19.0757 36.3631 19.5409 36.7052 19.5947C38.4316 19.8638 38.4316 22.3741 36.7052 22.6433C36.3625 22.6964 36.2896 23.1616 36.5993 23.3197C38.1589 24.1145 37.3905 26.5017 35.6659 26.2193C35.3238 26.1632 35.1121 26.5832 35.3579 26.8294C36.5981 28.0713 35.136 30.1019 33.5824 29.2957C33.2745 29.1358 32.9444 29.4689 33.1029 29.7797C33.9018 31.3474 31.8895 32.8228 30.6588 31.5713C30.4149 31.3233 29.9987 31.5369 30.0543 31.8821C30.3341 33.6224 27.9685 34.3978 27.1809 32.8241C27.0248 32.5121 26.5638 32.5857 26.5105 32.9309C26.2438 34.673 23.7562 34.673 23.4895 32.9309C23.4368 32.5851 22.9758 32.5115 22.8191 32.8241C22.0315 34.3978 19.6659 33.6224 19.9457 31.8821C20.0013 31.5369 19.5851 31.3233 19.3412 31.5713C18.1105 32.8228 16.0982 31.3474 16.8971 29.7797C17.0556 29.4689 16.7255 29.1358 16.4176 29.2957C14.864 30.1019 13.4019 28.0713 14.6421 26.8294C14.8879 26.5832 14.6762 26.1632 14.3341 26.2193C12.6095 26.5017 11.8411 24.1145 13.4007 23.3197C13.7098 23.1622 13.6369 22.697 13.2948 22.6433C11.5684 22.3741 11.5684 19.8638 13.2948 19.5947C13.6375 19.5416 13.7104 19.0763 13.4007 18.9182C11.8411 18.1234 12.6095 15.7362 14.3341 16.0186C14.6762 16.0747 14.8879 15.6547 14.6421 15.4085C13.4025 14.1672 14.8646 12.1366 16.4181 12.9428C16.7261 13.1028 17.0562 12.7697 16.8977 12.4589C16.0988 10.8905 18.1111 9.41509 19.3418 10.6666C19.5857 10.9147 20.0019 10.701 19.9463 10.3559C19.6665 8.61552 22.0321 7.84009 22.8197 9.41388C22.9758 9.72586 23.4368 9.65224 23.4901 9.30707C23.7562 7.56431 26.2438 7.56431 26.5105 9.30707Z" fill="#659C35"/>
<path d="M26.5105 32.9309C26.2438 34.673 23.7562 34.673 23.4895 32.9309C23.4542 32.7003 23.0505 32.5573 23.0505 32.64C23.0505 32.7227 23.0505 43 23.0505 43H26.6385C26.6385 43 26.6385 32.7703 26.6385 32.7088C26.6385 32.6472 26.5255 32.8337 26.5105 32.9309Z" fill="#6B5B4B"/>
<path d="M26.6385 28.5172C26.3084 28.5172 26.0405 28.2475 26.0405 27.9138C26.0405 24.9189 28.4552 22.4828 31.4225 22.4828C31.7526 22.4828 32.0205 22.7525 32.0205 23.0862C32.0205 23.4199 31.7526 23.6897 31.4225 23.6897C29.1142 23.6897 27.2365 25.5851 27.2365 27.9138C27.2365 28.2475 26.9686 28.5172 26.6385 28.5172Z" fill="#A4E869"/>
<path d="M23.0505 30.3276C22.7204 30.3276 22.4525 30.0578 22.4525 29.7241C22.4525 27.3954 20.5748 25.5 18.2666 25.5C17.9365 25.5 17.6686 25.2303 17.6686 24.8966C17.6686 24.5628 17.9365 24.2931 18.2666 24.2931C21.2338 24.2931 23.6485 26.7292 23.6485 29.7241C23.6485 30.0578 23.3806 30.3276 23.0505 30.3276Z" fill="#A4E869"/>
<path d="M24.2465 23.6897C23.9164 23.6897 23.6485 23.4199 23.6485 23.0862C23.6485 20.7575 21.7708 18.8621 19.4625 18.8621C19.1325 18.8621 18.8645 18.5923 18.8645 18.2586C18.8645 17.9249 19.1325 17.6552 19.4625 17.6552C22.4298 17.6552 24.8445 20.0913 24.8445 23.0862C24.8445 23.4199 24.5766 23.6897 24.2465 23.6897Z" fill="#A4E869"/>
<path d="M24.8445 18.8621C24.5144 18.8621 24.2465 18.5923 24.2465 18.2586C24.2465 15.2637 26.6612 12.8276 29.6285 12.8276C29.9586 12.8276 30.2265 13.0973 30.2265 13.431C30.2265 13.7647 29.9586 14.0345 29.6285 14.0345C27.3202 14.0345 25.4425 15.9299 25.4425 18.2586C25.4425 18.5923 25.1746 18.8621 24.8445 18.8621Z" fill="#A4E869"/>
<path d="M33.8145 18.8621C32.4953 18.8621 31.4225 17.7795 31.4225 16.4483C31.4225 16.1146 31.6904 15.8448 32.0205 15.8448C32.3506 15.8448 32.6185 16.1146 32.6185 16.4483C32.6185 17.1139 33.1549 17.6552 33.8145 17.6552C34.1446 17.6552 34.4125 17.9249 34.4125 18.2586C34.4125 18.5923 34.1446 18.8621 33.8145 18.8621Z" fill="#A4E869"/>
<path d="M28.4325 21.2759C28.1024 21.2759 27.8345 21.0061 27.8345 20.6724C27.8345 19.3412 28.9073 18.2586 30.2265 18.2586C30.5566 18.2586 30.8245 18.5284 30.8245 18.8621C30.8245 19.1958 30.5566 19.4655 30.2265 19.4655C29.5669 19.4655 29.0305 20.0068 29.0305 20.6724C29.0305 21.0061 28.7626 21.2759 28.4325 21.2759Z" fill="#A4E869"/>
<path d="M23.0505 14.6379C21.7313 14.6379 20.6585 13.5553 20.6585 12.2241C20.6585 11.8904 20.9264 11.6207 21.2565 11.6207C21.5866 11.6207 21.8545 11.8904 21.8545 12.2241C21.8545 12.8897 22.3909 13.431 23.0505 13.431C23.3806 13.431 23.6485 13.7008 23.6485 14.0345C23.6485 14.3682 23.3806 14.6379 23.0505 14.6379Z" fill="#A4E869"/>
<path d="M16.4726 22.4828C16.1425 22.4828 15.8746 22.213 15.8746 21.8793C15.8746 21.5456 16.1425 21.2759 16.4726 21.2759C17.1322 21.2759 17.6686 20.7346 17.6686 20.069C17.6686 19.7353 17.9365 19.4655 18.2666 19.4655C18.5967 19.4655 18.8646 19.7353 18.8646 20.069C18.8646 21.4002 17.7912 22.4828 16.4726 22.4828Z" fill="#A4E869"/>
<path d="M30.8245 28.5172C30.4944 28.5172 30.2265 28.2475 30.2265 27.9138C30.2265 26.5826 31.2993 25.5 32.6185 25.5C32.9486 25.5 33.2165 25.7697 33.2165 26.1034C33.2165 26.4372 32.9486 26.7069 32.6185 26.7069C31.9589 26.7069 31.4225 27.2482 31.4225 27.9138C31.4225 28.2475 31.1546 28.5172 30.8245 28.5172Z" fill="#A4E869"/>
</svg>
