<svg width="162" height="41" viewBox="0 0 162 41" fill="none" xmlns="http://www.w3.org/2000/svg">
<path d="M68.264 7.8C68.672 7.8 68.876 8.868 68.876 11.004C68.876 13.116 68.672 14.172 68.264 14.172H61.676V18.276H66.068C66.476 18.276 66.68 19.212 66.68 21.084C66.68 22.932 66.488 23.856 66.104 23.856H61.676V32.532C61.676 32.868 61.22 33.084 60.308 33.18C59.42 33.3 58.676 33.36 58.076 33.36L56.384 33.288C55.208 33.144 54.62 32.904 54.62 32.568V8.736C54.62 8.352 54.692 8.1 54.836 7.98C55.004 7.86 55.244 7.8 55.556 7.8H68.264ZM78.1525 32.712C78.1525 32.928 76.9285 33.036 74.4805 33.036C72.5605 33.012 71.6005 32.916 71.6005 32.748V8.232C71.6005 7.872 72.7645 7.692 75.0925 7.692C77.1325 7.764 78.1525 7.884 78.1525 8.052V32.712ZM81.2291 15.216C81.2291 14.952 82.2611 14.82 84.3251 14.82C86.3891 14.82 87.4211 14.952 87.4211 15.216V25.728C87.4211 26.928 87.8051 27.528 88.5731 27.528C89.1491 27.528 89.7971 27.276 90.5171 26.772V15.216C90.5171 14.976 91.5371 14.856 93.5771 14.856C95.6171 14.856 96.6371 14.976 96.6371 15.216V27.024H97.5731C98.3891 27.024 98.7971 27.804 98.7971 29.364C98.7971 30.156 98.6291 30.96 98.2931 31.776C97.8131 32.832 97.1651 33.36 96.3491 33.36C94.7411 33.36 93.5531 32.7 92.7851 31.38L92.7491 31.416C91.2851 32.712 89.7131 33.36 88.0331 33.36C85.7051 33.36 83.9891 32.784 82.8851 31.632C81.7811 30.456 81.2291 28.524 81.2291 25.836V15.216ZM102.395 19.788H100.631C100.271 19.788 100.091 18.996 100.091 17.412C100.091 15.804 100.271 15 100.631 15H102.395V14.208C102.395 11.664 102.923 9.912 103.979 8.952C105.059 7.968 106.559 7.476 108.479 7.476C110.399 7.476 112.091 7.824 113.555 8.52C113.747 8.592 113.843 8.856 113.843 9.312C113.843 9.744 113.639 10.452 113.231 11.436C112.823 12.42 112.475 12.984 112.187 13.128C111.371 12.624 110.531 12.372 109.667 12.372C108.731 12.372 108.263 12.996 108.263 14.244V15H111.251C111.683 15 111.899 15.768 111.899 17.304C111.899 18.984 111.623 19.824 111.071 19.824H108.767V32.568C108.767 32.856 107.699 33 105.563 33C103.451 33 102.395 32.856 102.395 32.568V19.788ZM115.895 19.788H114.131C113.771 19.788 113.591 18.996 113.591 17.412C113.591 15.804 113.771 15 114.131 15H115.895V14.208C115.895 11.664 116.423 9.912 117.479 8.952C118.559 7.968 120.059 7.476 121.979 7.476C123.899 7.476 125.591 7.824 127.055 8.52C127.247 8.592 127.343 8.856 127.343 9.312C127.343 9.744 127.139 10.452 126.731 11.436C126.323 12.42 125.975 12.984 125.687 13.128C124.871 12.624 124.031 12.372 123.167 12.372C122.231 12.372 121.763 12.996 121.763 14.244V15H124.751C125.183 15 125.399 15.768 125.399 17.304C125.399 18.984 125.123 19.824 124.571 19.824H122.267V32.568C122.267 32.856 121.199 33 119.063 33C116.951 33 115.895 32.856 115.895 32.568V19.788ZM126.731 15.18C126.731 14.916 127.823 14.784 130.007 14.784C132.215 14.784 133.355 14.904 133.427 15.144L136.019 23.64L138.503 15.072C138.599 14.88 139.343 14.784 140.735 14.784C143.927 14.784 145.451 14.94 145.307 15.252L136.847 39.336C136.823 39.48 136.163 39.552 134.867 39.552C133.595 39.552 132.407 39.504 131.303 39.408C130.199 39.336 129.671 39.24 129.719 39.12L132.851 31.56L126.731 15.18ZM148.083 26.52C150.027 27.696 151.563 28.284 152.691 28.284C153.411 28.284 153.771 28.032 153.771 27.528C153.771 27.168 153.147 26.7 151.899 26.124C148.899 24.9 147.399 22.896 147.399 20.112C147.399 18.336 148.047 16.98 149.343 16.044C150.639 15.108 152.187 14.64 153.987 14.64C155.811 14.64 157.347 14.832 158.595 15.216C159.867 15.6 160.503 16.104 160.503 16.728C160.503 17.256 160.239 17.952 159.711 18.816C159.207 19.68 158.859 20.148 158.667 20.22C157.635 19.644 156.519 19.356 155.319 19.356C154.671 19.356 154.347 19.584 154.347 20.04C154.347 20.328 154.467 20.58 154.707 20.796C154.971 20.988 155.439 21.24 156.111 21.552C156.783 21.84 157.335 22.104 157.767 22.344C158.223 22.584 158.727 22.92 159.279 23.352C160.431 24.264 161.007 25.452 161.007 26.916C161.007 28.836 160.371 30.396 159.099 31.596C157.827 32.772 155.907 33.36 153.339 33.36C151.635 33.36 150.087 33.072 148.695 32.496C147.303 31.92 146.607 31.128 146.607 30.12C146.607 29.448 146.763 28.74 147.075 27.996C147.411 27.252 147.747 26.76 148.083 26.52Z" fill="white"/>
<circle cx="20" cy="20" r="19" fill="white" stroke="#A4E869" stroke-width="2"/>
<path d="M21.2781 7.083C21.3227 7.3695 21.7128 7.4305 21.8454 7.1715C22.5118 5.8675 24.5135 6.51 24.2767 7.952C24.2296 8.238 24.5818 8.415 24.7883 8.2095C25.8296 7.1725 27.5323 8.395 26.8563 9.694C26.7222 9.9515 27.0015 10.2275 27.2621 10.095C28.5767 9.427 29.8138 11.1095 28.7644 12.1385C28.5564 12.3425 28.7355 12.6905 29.025 12.644C30.4843 12.41 31.1345 14.388 29.8148 15.0465C29.5532 15.177 29.615 15.5625 29.9044 15.607C31.3652 15.83 31.3652 17.91 29.9044 18.133C29.6145 18.177 29.5527 18.5625 29.8148 18.6935C31.1345 19.352 30.4843 21.33 29.025 21.096C28.7355 21.0495 28.5564 21.3975 28.7644 21.6015C29.8138 22.6305 28.5767 24.313 27.2621 23.645C27.0015 23.5125 26.7222 23.7885 26.8563 24.046C27.5323 25.345 25.8296 26.5675 24.7883 25.5305C24.5818 25.325 24.2296 25.502 24.2767 25.788C24.5135 27.23 22.5118 27.8725 21.8454 26.5685C21.7133 26.31 21.3232 26.371 21.2781 26.657C21.0525 28.1005 18.9475 28.1005 18.7219 26.657C18.6773 26.3705 18.2872 26.3095 18.1546 26.5685C17.4882 27.8725 15.4865 27.23 15.7233 25.788C15.7704 25.502 15.4182 25.325 15.2117 25.5305C14.1704 26.5675 12.4677 25.345 13.1437 24.046C13.2778 23.7885 12.9985 23.5125 12.7379 23.645C11.4233 24.313 10.1862 22.6305 11.2356 21.6015C11.4436 21.3975 11.2645 21.0495 10.975 21.096C9.51574 21.33 8.86553 19.352 10.1852 18.6935C10.4468 18.563 10.385 18.1775 10.0956 18.133C8.6348 17.91 8.6348 15.83 10.0956 15.607C10.3855 15.563 10.4473 15.1775 10.1852 15.0465C8.86553 14.388 9.51574 12.41 10.975 12.644C11.2645 12.6905 11.4436 12.3425 11.2356 12.1385C10.1867 11.11 11.4239 9.4275 12.7384 10.0955C12.999 10.228 13.2783 9.952 13.1442 9.6945C12.4682 8.395 14.1709 7.1725 15.2123 8.2095C15.4187 8.415 15.7709 8.238 15.7238 7.952C15.487 6.51 17.4887 5.8675 18.1551 7.1715C18.2872 7.43 18.6773 7.369 18.7224 7.083C18.9475 5.639 21.0525 5.639 21.2781 7.083Z" fill="#659C35"/>
<path d="M21.2782 26.6571C21.0525 28.1006 18.9475 28.1006 18.7219 26.6571C18.692 26.4661 18.3505 26.3476 18.3505 26.4161C18.3505 26.4846 18.3505 35.0001 18.3505 35.0001H21.3864C21.3864 35.0001 21.3864 26.5241 21.3864 26.4731C21.3864 26.4221 21.2908 26.5766 21.2782 26.6571Z" fill="#6B5B4B"/>
<path d="M21.3864 23C21.1071 23 20.8804 22.7765 20.8804 22.5C20.8804 20.0185 22.9236 18 25.4344 18C25.7137 18 25.9404 18.2235 25.9404 18.5C25.9404 18.7765 25.7137 19 25.4344 19C23.4813 19 21.8924 20.5705 21.8924 22.5C21.8924 22.7765 21.6657 23 21.3864 23Z" fill="#A4E869"/>
<path d="M18.3504 24.5C18.0711 24.5 17.8444 24.2765 17.8444 24C17.8444 22.0705 16.2556 20.5 14.3024 20.5C14.0231 20.5 13.7964 20.2765 13.7964 20C13.7964 19.7235 14.0231 19.5 14.3024 19.5C16.8132 19.5 18.8564 21.5185 18.8564 24C18.8564 24.2765 18.6297 24.5 18.3504 24.5Z" fill="#A4E869"/>
<path d="M19.3624 19C19.0831 19 18.8564 18.7765 18.8564 18.5C18.8564 16.5705 17.2676 15 15.3145 15C15.0352 15 14.8085 14.7765 14.8085 14.5C14.8085 14.2235 15.0352 14 15.3145 14C17.8252 14 19.8684 16.0185 19.8684 18.5C19.8684 18.7765 19.6418 19 19.3624 19Z" fill="#A4E869"/>
<path d="M19.8684 15C19.5891 15 19.3624 14.7765 19.3624 14.5C19.3624 12.0185 21.4056 10 23.9164 10C24.1957 10 24.4224 10.2235 24.4224 10.5C24.4224 10.7765 24.1957 11 23.9164 11C21.9633 11 20.3744 12.5705 20.3744 14.5C20.3744 14.7765 20.1477 15 19.8684 15Z" fill="#A4E869"/>
<path d="M27.4584 15C26.3421 15 25.4344 14.103 25.4344 13C25.4344 12.7235 25.6611 12.5 25.9404 12.5C26.2197 12.5 26.4464 12.7235 26.4464 13C26.4464 13.5515 26.9003 14 27.4584 14C27.7377 14 27.9644 14.2235 27.9644 14.5C27.9644 14.7765 27.7377 15 27.4584 15Z" fill="#A4E869"/>
<path d="M22.9044 17C22.6251 17 22.3984 16.7765 22.3984 16.5C22.3984 15.397 23.3062 14.5 24.4224 14.5C24.7017 14.5 24.9284 14.7235 24.9284 15C24.9284 15.2765 24.7017 15.5 24.4224 15.5C23.8643 15.5 23.4104 15.9485 23.4104 16.5C23.4104 16.7765 23.1837 17 22.9044 17Z" fill="#A4E869"/>
<path d="M18.3505 11.5C17.2342 11.5 16.3265 10.603 16.3265 9.5C16.3265 9.2235 16.5532 9 16.8325 9C17.1118 9 17.3385 9.2235 17.3385 9.5C17.3385 10.0515 17.7924 10.5 18.3505 10.5C18.6298 10.5 18.8565 10.7235 18.8565 11C18.8565 11.2765 18.6298 11.5 18.3505 11.5Z" fill="#A4E869"/>
<path d="M12.7845 18C12.5052 18 12.2785 17.7765 12.2785 17.5C12.2785 17.2235 12.5052 17 12.7845 17C13.3426 17 13.7965 16.5515 13.7965 16C13.7965 15.7235 14.0232 15.5 14.3025 15.5C14.5818 15.5 14.8085 15.7235 14.8085 16C14.8085 17.103 13.9002 18 12.7845 18Z" fill="#A4E869"/>
<path d="M24.9284 23C24.6491 23 24.4224 22.7765 24.4224 22.5C24.4224 21.397 25.3302 20.5 26.4464 20.5C26.7257 20.5 26.9524 20.7235 26.9524 21C26.9524 21.2765 26.7257 21.5 26.4464 21.5C25.8883 21.5 25.4344 21.9485 25.4344 22.5C25.4344 22.7765 25.2077 23 24.9284 23Z" fill="#A4E869"/>
</svg>
