<svg width="50" height="50" viewBox="0 0 50 50" fill="none" xmlns="http://www.w3.org/2000/svg">
<circle cx="25" cy="25" r="25" fill="white"/>
<path d="M38 17.4829C37.0447 17.9073 36.0173 18.1901 34.9332 18.3242C36.0352 17.6682 36.8833 16.6219 37.2812 15.3854C36.2501 15.9913 35.1076 16.4366 33.8923 16.6714C32.9216 15.6399 31.537 15 30.0033 15C27.0572 15 24.6686 17.3736 24.6686 20.3006C24.6686 20.7151 24.7173 21.1184 24.8078 21.51C20.3755 21.287 16.444 19.1741 13.8139 15.9672C13.352 16.751 13.0921 17.6682 13.0921 18.6367C13.0921 20.4767 14.0314 22.0968 15.464 23.051C14.5894 23.0245 13.7665 22.7805 13.0459 22.3889C13.0459 22.405 13.0459 22.4284 13.0459 22.4513C13.0459 25.0226 14.8851 27.1639 17.3229 27.6513C16.8776 27.7736 16.4064 27.8415 15.9211 27.8415C15.5768 27.8415 15.2411 27.8026 14.9159 27.7439C15.5946 29.8451 17.5638 31.3812 19.8969 31.4269C18.0713 32.8463 15.772 33.6962 13.2719 33.6962C12.8401 33.6962 12.4176 33.6715 12 33.6208C14.3634 35.1211 17.1677 36 20.1784 36C29.9885 36 35.3558 27.9218 35.3558 20.9134C35.3558 20.6836 35.3484 20.4551 35.3379 20.229C36.385 19.4872 37.2874 18.5521 38 17.4829Z" fill="url(#paint0_linear_60_66)"/>
<defs>
<linearGradient id="paint0_linear_60_66" x1="15.9716" y1="15.8104" x2="34.7832" y2="34.5699" gradientUnits="userSpaceOnUse">
<stop stop-color="#2AA4F4"/>
<stop offset="1" stop-color="#007AD9"/>
</linearGradient>
</defs>
</svg>
